<?xml version="1.0" encoding="utf-8"?>
<!-- Generator: Adobe Illustrator 26.2.1, SVG Export Plug-In . SVG Version: 6.00 Build 0)  -->
<svg version="1.1" id="Layer_1" xmlns="http://www.w3.org/2000/svg" xmlns:xlink="http://www.w3.org/1999/xlink" x="0px" y="0px"
	 viewBox="0 0 36 14.4" style="enable-background:new 0 0 36 14.4;" xml:space="preserve">
<style type="text/css">
	.st0{fill:none;}
	.st1{fill:#FFFFFF;}
	.st2{fill:#C1A2EA;}
	.st3{fill:#87D2A7;}
	.st4{fill:#EEA186;}
	.st5{fill:#F7D976;}
</style>
<g>
	<path class="st0" d="M24.9,7.1L24.9,7.1c0.1-0.1,0-0.2,0-0.3C24.9,6.9,24.9,7,24.9,7.1z"/>
	<path class="st0" d="M12.9,6.7c0,0.1,0,0.3,0,0.6c0,0.4,0.1,1,0.3,1.7c0.1,0.5,0.3,0.8,0.4,0.9c0-0.1,0.1-0.3,0.1-0.6
		c0-0.3-0.1-1-0.3-1.7C13.1,7.2,13,6.9,12.9,6.7z"/>
	<path class="st0" d="M31.7,7.2l0.2-0.5c0-0.1,0-0.2,0-0.2c0,0-0.1-0.1-0.1-0.1c-0.1-0.1-0.2-0.2-0.3-0.3c0,0.1-0.1,0.2-0.1,0.2
		c0,0,0,0,0,0c0,0,0,0,0,0L31.7,7.2z"/>
	<path class="st0" d="M6.1,9.9c0.4,0,0.4-0.1,0.4-0.2c0-0.4-0.3-0.6-1.5-1c0,0-0.1,0-0.1,0C4.9,8.7,5,8.8,5,8.9
		C5.4,9.6,5.6,9.9,6.1,9.9z"/>
	<path class="st0" d="M5.7,3.8c-0.3,0-0.4,0.1-0.4,0.3c0,0.5,0.3,0.8,1.4,1.1C6.6,5,6.5,4.8,6.4,4.6C6.1,3.9,6,3.8,5.7,3.8z"/>
	<path class="st0" d="M27.5,8.4l-0.1,0.1C27.5,8.5,27.5,8.5,27.5,8.4c0.2,0.1,0.3,0.1,0.4,0.1l-0.1-0.3C27.7,8.3,27.6,8.4,27.5,8.4z
		"/>
	<path class="st0" d="M26.7,8.9l-0.3,0.2C26.5,9,26.6,9,26.7,8.9z"/>
	<path class="st1" d="M9,7.2C7.7,5.7,4.5,6.3,4.5,4.1C4.5,3.5,4.9,3,5.7,3c1.6,0,1.2,2.4,2.8,2.4c0.7,0,1-0.4,1-0.9
		c0-1.2-1.6-2.3-3.7-2.3c-2.1,0-3.5,1.2-3.5,2.8c0,3.8,5.1,2.2,5.1,4.7c0,0.7-0.5,1.1-1.2,1.1c-1.9,0-1.7-2.4-3.1-2.4
		c-0.6,0-0.9,0.4-0.9,0.9c0,1.2,1.5,2.4,3.9,2.4c1.4,0,2.7-0.5,3.2-1.5C9,9.5,8.9,8.9,8.9,8.3C8.9,7.9,8.9,7.6,9,7.2z"/>
	<path class="st1" d="M16.2,7.4c-0.2-0.2-0.5-0.5-0.5-1v0c0-0.1,0-0.2,0-0.3c-0.6-0.6-1.5-1-2.5-1c-1.8,0-3.5,1.3-3.5,3.2
		c0,1.9,1.6,3.2,3.6,3.2c1.3,0,2.4-0.6,3-1.6L16.2,7.4C16.3,7.5,16.2,7.5,16.2,7.4z M13.5,10.9c-1,0-1.6-2.5-1.6-3.6
		c0-1,0.2-1.6,0.8-1.6c1,0,1.5,2.6,1.5,3.6C14.4,10.3,14.1,10.9,13.5,10.9z"/>
	<path class="st1" d="M27.6,9.3c-0.1,0-0.2,0-0.2,0.1C27.1,9.7,26.6,10,26,10c-0.6,0-1.1-0.3-1.5-0.8l2.6-1.4
		c0.1-0.1,0.2-0.1,0.3-0.3L27.3,7c-0.1-0.1-0.2-0.2-0.3-0.4c-0.2-0.2-0.5-0.6-0.5-1.1V5.5c0,0,0-0.1,0-0.1c-0.4-0.2-0.8-0.3-1.3-0.3
		c-0.9,0-1.7,0.4-2.3,1c0,0.1,0,0.2,0,0.3c0,0.8-0.3,1.5-0.9,1.8c0,0,0,0.1,0,0.1c0,2,1.3,3.3,3.2,3.3c1.7,0,2.6-1.3,2.6-2
		C27.8,9.4,27.7,9.3,27.6,9.3z M24.1,7.1c0-0.7,0.3-1.4,0.9-1.4c0.7,0,0.9,0.9,0.9,1.3c0,0.3-0.1,0.5-0.3,0.7l-1.2,0.7
		C24.2,8.1,24.1,7.6,24.1,7.1z"/>
	<path class="st1" d="M34.2,5.2h-1.7c-0.2,0-0.3,0.1-0.3,0.3v0.1C32.2,5.9,33,6,32.7,7l-0.9,2.6l-1.1-2.9c-0.3-0.7,0.2-0.8,0.2-1.1
		V5.5c0-0.2-0.1-0.3-0.3-0.3h-3c-0.2,0-0.3,0.1-0.3,0.2v0.1c0,0.4,0.4,0.6,0.7,1.1l2,4.5c0.1,0.2,0.2,0.3,0.5,0.3h1.1
		c0.2,0,0.4-0.1,0.5-0.3l1.7-4.5c0.2-0.6,0.9-0.7,0.9-1.1V5.5C34.5,5.3,34.4,5.2,34.2,5.2z"/>
	<path class="st2" d="M21.8,7.2h-1.5c0.1,0.2,0.3,0.4,0.7,0.4c0,0,0,0,0,0C21.4,7.5,21.7,7.4,21.8,7.2z"/>
	<path class="st3" d="M16.8,6c-0.2,0.1-0.3,0.2-0.3,0.3l0,0c0,0,0,0.1,0,0.1H19l0-1.1c0-0.1,0-0.2-0.1-0.3c0,0-0.1,0-0.1,0
		c-0.1,0-0.1,0-0.2,0.1L16.8,6z"/>
	<path class="st3" d="M19.1,6.4L19,6.6h0.4c0.1-0.1,0.2-0.2,0.3-0.2c0,0,0,0,0,0c0.2,0,0.3,0.1,0.3,0.2H22c0-0.1,0-0.1,0-0.2
		c0-0.4-0.1-0.7-0.3-0.9c-0.2-0.2-0.5-0.4-0.9-0.4c0,0,0,0,0,0C20,5.1,19.4,5.6,19.1,6.4z"/>
	<path class="st2" d="M17.1,7.2c0,0.1,0.1,0.2,0.1,0.3l0,0.7h1l1.2,0l0-0.5c0-0.2,0-0.3,0-0.5H17.1z"/>
	<polygon class="st4" points="19.3,8.7 17.2,8.7 17.2,9.7 19.3,9.7 	"/>
	<path class="st5" d="M19.7,11.4c0.1,0,0.3-0.1,0.3-0.2l0-0.1c0-0.1-0.1-0.3-0.3-0.4c-0.1-0.1-0.3-0.3-0.4-0.5h-2.2
		c-0.1,0.2-0.2,0.4-0.3,0.5c-0.1,0.1-0.2,0.2-0.2,0.4l0,0.1c0,0.1,0,0.1,0.1,0.2c0,0,0.1,0.1,0.2,0.1L19.7,11.4z"/>
</g>
</svg>
